nColumns=19
nRows=59
DataType=double
version=3
OpenSimVersion=4.1
endheader
time	ground_force_1_vx	ground_force_1_vy	ground_force_1_vz	ground_force_1_px	ground_force_1_py	ground_force_1_pz	ground_force_1_mx	ground_force_1_my	ground_force_1_mz	ground_force_2_vx	ground_force_2_vy	ground_force_2_vz	ground_force_2_px	ground_force_2_py	ground_force_2_pz	ground_force_2_mx	ground_force_2_my	ground_force_2_mz
4.125	-195.659	1607.56	43.2494	1.16063	0	-0.301501	0	-2.12626	0	0	0	0	-0.000546379	0	-0.000117205	0	0	0
4.13333	-161.534	1739.08	68.1589	1.12812	0	-0.304065	0	-5.67023	0	0	0	0	-0.000546375	0	-0.000117204	0	0	0
4.14167	-103.8	1835.53	77.3784	1.09405	0	-0.305936	0	-8.06208	0	0	0	0	-0.00054637	0	-0.000117204	0	0	0
4.15	-43.2972	1889.66	75.9707	1.06169	0	-0.306996	0	-9.13005	0	0	0	0	-0.000546367	0	-0.000117203	0	0	0
4.15833	15.7402	1900.32	71.5479	1.03055	0	-0.307078	0	-9.07645	0	0	0	0	-0.000546364	0	-0.000117203	0	0	0
4.16667	74.0971	1866.25	67.7572	0.999254	0	-0.306722	0	-8.30186	0	0	0	0	-0.000546362	0	-0.000117203	0	0	0
4.175	127.303	1781.61	64.5798	0.968266	0	-0.306677	0	-7.21243	0	0	0	0	-0.00054636	0	-0.000117202	0	0	0
4.18333	170.36	1642.39	61.6278	0.938632	0	-0.307011	0	-6.08833	0	0	0	0	-0.000546359	0	-0.000117202	0	0	0
4.19167	202.894	1450.25	58.7542	0.909609	0	-0.307314	0	-5.04092	0	0	0	0	-0.000546359	0	-0.000117202	0	0	0
4.2	229.045	1213.05	54.6208	0.877693	0	-0.307354	0	-4.05054	0	0	0	0	-0.000546358	0	-0.000117202	0	0	0
4.20833	243.364	949.768	47.0544	0.841013	0	-0.307117	0	-3.05344	0	0	0	0	-0.000546356	0	-0.000117201	0	0	0
4.21667	233.18	692.952	35.7533	0.803276	0	-0.306443	0	-2.02795	0	0	0	0	-0.000546352	0	-0.0001172	0	0	0
4.225	195.344	470.983	23.677	0.771285	0	-0.305338	0	-1.03232	0	0	0	0	-0.000546347	0	-0.000117199	0	0	0
4.23333	143.694	296.204	14.5585	0.749544	0	-0.303361	0	-0.180311	0	0	0	0	-0.000546341	0	-0.000117197	0	0	0
4.24167	94.4553	169.127	9.38011	0.738033	0	-0.298068	-0	0.416225	-0	0	0	0	-0.000546333	0	-0.000117195	0	0	0
4.25	55.0698	85.3064	6.22232	0.735535	0	-0.285572	-0	0.693592	-0	0	0	0	-0.000546324	0	-0.000117192	0	0	0
4.25833	27.2554	37.2167	3.2007	0.756772	0	-0.260274	-0	0.650289	-0	0	0	0	-0.000546313	0	-0.000117189	0	0	0
4.26667	10.8222	14.6571	0.479885	0.900484	0	-0.20873	-0	0.339113	-0	0	0	0	-0.000546301	0	-0.000117185	0	0	0
4.275	0	0	0	-0.000545751	0	-0.000116939	0	0	0	0	0	0	-0.000546288	0	-0.000117181	0	0	0
4.28333	0	0	0	-0.000545737	0	-0.000116935	0	0	0	0	0	0	-0.000546273	0	-0.000117176	0	0	0
4.29167	0	0	0	-0.000545721	0	-0.00011693	0	0	0	0	0	0	-0.000546256	0	-0.000117172	0	0	0
4.3	0	0	0	-0.000545704	0	-0.000116925	0	0	0	0	0	0	-0.000546239	0	-0.000117166	0	0	0
4.30833	0	0	0	-0.000545685	0	-0.00011692	0	0	0	0	0	0	-0.000546219	0	-0.000117161	0	0	0
4.31667	0	0	0	-0.000545666	0	-0.000116914	0	0	0	0	0	0	-0.000546199	0	-0.000117154	0	0	0
4.325	0	0	0	-0.000545644	0	-0.000116908	0	0	0	0	0	0	-0.000546177	0	-0.000117148	0	0	0
4.33333	0	0	0	-0.000545622	0	-0.000116901	0	0	0	0	0	0	-0.000546154	0	-0.000117141	0	0	0
4.34167	0	0	0	-0.000545598	0	-0.000116894	0	0	0	0	0	0	-0.000546129	0	-0.000117133	0	0	0
4.35	0	0	0	-0.000545572	0	-0.000116886	0	0	0	0	0	0	-0.000546103	0	-0.000117126	0	0	0
4.35833	0	0	0	-0.000545546	0	-0.000116879	0	0	0	0	0	0	-0.000546075	0	-0.000117117	0	0	0
4.36667	0	0	0	-0.000545518	0	-0.00011687	0	0	0	0	0	0	-0.000546046	0	-0.000117109	0	0	0
4.375	0	0	0	-0.000545488	0	-0.000116862	0	0	0	-5.54483	27.4729	0.566392	1.32885	0	-0.304919	-0	0.946818	-0
4.38333	0	0	0	-0.000545458	0	-0.000116853	0	0	0	-24.7318	80.5053	3.4632	1.32497	0	-0.359317	0	-1.7466	0
4.39167	0	0	0	-0.000545426	0	-0.000116843	0	0	0	-69.172	203.773	13.0957	1.31696	0	-0.370846	0	-4.89541	0
4.4	0	0	0	-0.000545392	0	-0.000116833	0	0	0	-132.829	408.838	32.2545	1.30914	0	-0.367451	0	-7.75139	0
4.40833	0	0	0	-0.000545358	0	-0.000116823	0	0	0	-179.437	659.825	54.934	1.29335	0	-0.36026	0	-9.44551	0
4.41667	0	0	0	-0.000545322	0	-0.000116812	0	0	0	-186.875	921.68	65.8556	1.26151	0	-0.353294	0	-9.28659	0
4.425	0	0	0	-0.000545284	0	-0.000116801	0	0	0	-183.496	1181.91	52.7108	1.22154	0	-0.348151	0	-7.07655	0
4.43333	0	0	0	-0.000545246	0	-0.00011679	0	0	0	-189.934	1418.77	19.2528	1.18659	0	-0.344092	0	-3.26003	0
4.44167	0	0	0	-0.000545206	0	-0.000116778	0	0	0	-189.058	1617.26	-17.6457	1.15585	0	-0.339925	-0	1.21295	-0
4.45	0	0	0	-0.000545165	0	-0.000116766	0	0	0	-162.855	1777.97	-42.7729	1.12355	0	-0.336089	-0	5.25638	-0
4.45833	0	0	0	-0.000545123	0	-0.000116754	0	0	0	-113.822	1896.72	-51.8383	1.08987	0	-0.333456	-0	8.05057	-0
4.46667	0	0	0	-0.000545079	0	-0.000116741	0	0	0	-59.0706	1960.66	-49.4862	1.05881	0	-0.332306	-0	9.28296	-0
4.475	0	0	0	-0.000545034	0	-0.000116728	0	0	0	-9.30893	1967.16	-42.9446	1.03126	0	-0.332018	-0	9.1528	-0
4.48333	0	0	0	-0.000544988	0	-0.000116714	0	0	0	39.3015	1925.09	-37.6231	1.00487	0	-0.331703	-0	8.19041	-0
4.49167	0	0	0	-0.00054494	0	-0.0001167	0	0	0	85.5099	1839.87	-35.8249	0.97858	0	-0.330994	-0	7.004	-0
4.5	0	0	0	-0.000544892	0	-0.000116686	0	0	0	122.431	1711.09	-37.4007	0.953093	0	-0.329744	-0	6.06067	-0
4.50833	0	0	0	-0.000544842	0	-0.000116671	0	0	0	148.217	1539.42	-41.0896	0.92868	0	-0.327828	-0	5.56435	-0
4.51667	0	0	0	-0.000544791	0	-0.000116656	0	0	0	165.061	1327.31	-45.2646	0.904136	0	-0.325503	-0	5.44434	-0
4.525	0	0	0	-0.000544738	0	-0.00011664	0	0	0	175.69	1080.12	-47.8045	0.876479	0	-0.32335	-0	5.43569	-0
4.53333	0	0	0	-0.000544685	0	-0.000116625	0	0	0	179.222	813.346	-46.3711	0.84228	0	-0.322034	-0	5.21454	-0
4.54167	0	0	0	-0.00054463	0	-0.000116608	0	0	0	169.748	558.074	-39.7239	0.802457	0	-0.321725	-0	4.5408	-0
4.55	0	0	0	-0.000544574	0	-0.000116592	0	0	0	140.497	347.74	-28.9039	0.767787	0	-0.321607	-0	3.35725	-0
4.55833	0	0	0	-0.000544517	0	-0.000116575	0	0	0	98.3925	197.939	-17.0419	0.754831	0	-0.320121	-0	1.80887	-0
4.56667	0	0	0	-0.000544459	0	-0.000116558	0	0	0	58.0141	104.453	-7.74977	0.773454	0	-0.313633	-0	0.179676	-0
4.575	0	0	0	-0.000544399	0	-0.00011654	0	0	0	28.6685	51.0058	-2.93918	0.789805	0	-0.299314	0	-1.21809	0
4.58333	0	0	0	-0.000544338	0	-0.000116522	0	0	0	11.8001	22.0645	-1.72107	0.704808	0	-0.27818	0	-2.14931	0
4.59167	0	0	0	-0.000544277	0	-0.000116504	0	0	0	0	0	0	-0.000544767	0	-0.000116725	0	0	0
4.6	0	0	0	-0.000544214	0	-0.000116485	0	0	0	0	0	0	-0.000544702	0	-0.000116706	0	0	0
4.60833	0	0	0	-0.00054415	0	-0.000116467	0	0	0	0	0	0	-0.000544636	0	-0.000116686	0	0	0
